<svg xmlns="http://www.w3.org/2000/svg" xmlns:xlink="http://www.w3.org/1999/xlink" viewBox="0,0,256,256" width="100px" height="100px"><g fill-opacity="0.81961" fill="#49fa29" fill-rule="nonzero" stroke="none" stroke-width="1" stroke-linecap="butt" stroke-linejoin="miter" stroke-miterlimit="10" stroke-dasharray="" stroke-dashoffset="0" font-family="none" font-weight="none" font-size="none" text-anchor="none" style="mix-blend-mode: normal"><path d="M0,256v-256h256v256z" id="bgRectangle"></path></g><g fill="#125ae6" fill-rule="nonzero" stroke="none" stroke-width="1" stroke-linecap="butt" stroke-linejoin="miter" stroke-miterlimit="10" stroke-dasharray="" stroke-dashoffset="0" font-family="none" font-weight="none" font-size="none" text-anchor="none" style="mix-blend-mode: normal"><g transform="scale(5.12,5.12)"><path d="M25,4c-3.85415,0 -7,3.14585 -7,7c0,2.78022 1.64104,5.18438 4,6.3125v0.77344c-0.36986,0.10487 -0.73632,0.22331 -1.0957,0.36719l-18.06836,7.25c-1.17413,0.47096 -1.84356,1.58424 -1.88086,2.68164c-0.00696,0.20482 0.01633,0.41056 0.05273,0.61523h-0.00781v6.25586c0,0.76718 0.44359,1.47341 1.13672,1.80469l14.92969,7.13867c5.01711,2.39912 10.85008,2.39912 15.86719,0l14.92773,-7.13867c0.69391,-0.33101 1.13867,-1.037 1.13867,-1.80469v-6.25586h-0.00781c0.03616,-0.20395 0.05967,-0.40911 0.05273,-0.61328c-0.0373,-1.09733 -0.70714,-2.21207 -1.88086,-2.68359l-18.06836,-7.25h-0.00195c-0.35841,-0.14336 -0.72427,-0.2619 -1.09375,-0.36719v-0.77344c2.35896,-1.12812 4,-3.53228 4,-6.3125c0,-3.85415 -3.14585,-7 -7,-7zM25,6c2.77327,0 5,2.22673 5,5c0,2.77327 -2.22673,5 -5,5c-2.77327,0 -5,-2.22673 -5,-5c0,-2.77327 2.22673,-5 5,-5zM24,17.91992c0.3276,0.04738 0.65968,0.08008 1,0.08008c0.34032,0 0.6724,-0.0327 1,-0.08008v10.99414c0,0.56503 -0.43497,1 -1,1c-0.56503,0 -1,-0.43497 -1,-1zM22,20.18555v8.72852c0,1.64497 1.35503,3 3,3c1.64497,0 3,-1.35503 3,-3v-8.7168c0.11641,0.04119 0.23602,0.06511 0.35156,0.11133l18.06641,7.25c0.43928,0.17647 0.614,0.51361 0.62695,0.89453c0.01295,0.38092 -0.13805,0.72997 -0.56445,0.93555l-15.40039,7.42578c-3.84218,1.85295 -8.31798,1.85295 -12.16016,0l-15.40234,-7.42578c-0.42625,-0.2055 -0.57741,-0.55445 -0.56445,-0.93555c0.01295,-0.3811 0.18808,-0.71849 0.62695,-0.89453l18.06836,-7.25c0.11614,-0.0465 0.23426,-0.08158 0.35156,-0.12305zM11.5,27c-1.933,0 -3.5,0.89543 -3.5,2c0,1.10457 1.567,2 3.5,2c1.933,0 3.5,-0.89543 3.5,-2c0,-1.10457 -1.567,-2 -3.5,-2zM3,31.35742l15.05078,7.25781c4.38982,2.11705 9.50862,2.11705 13.89844,0l15.05078,-7.25781v3.89844l-14.92773,7.14063c-4.47289,2.13888 -9.67164,2.13888 -14.14453,0l-14.92773,-7.14062z"></path></g></g><g fill="#000000" fill-rule="nonzero" stroke="none" stroke-width="1" stroke-linecap="butt" stroke-linejoin="miter" stroke-miterlimit="10" stroke-dasharray="" stroke-dashoffset="0" font-family="none" font-weight="none" font-size="none" text-anchor="none" style="mix-blend-mode: normal"><g><path d="M25.838,44.05l-3.88,-8.84h-3.84v8.84h-2.77v-21.84h6.12c2.14,0 3.76,0.55667 4.86,1.67c1.1,1.11333 1.65,2.74667 1.65,4.9v0c0,1.35333 -0.29667,2.53 -0.89,3.53c-0.59333,1.00667 -1.43667,1.76333 -2.53,2.27v0l4.23,9.29v0.18zM18.118,24.58v8.28h3.33c1.14667,0 2.06333,-0.37 2.75,-1.11c0.68,-0.74 1.02,-1.73 1.02,-2.97v0c0,-2.8 -1.27,-4.2 -3.81,-4.2v0zM37.088,44.35v0c-2.02,0 -3.57,-0.60333 -4.65,-1.81c-1.08,-1.20667 -1.63,-2.97333 -1.65,-5.3v0v-1.96c0,-2.42667 0.52667,-4.32667 1.58,-5.7c1.05333,-1.37333 2.52667,-2.06 4.42,-2.06v0c1.9,0 3.32,0.60333 4.26,1.81c0.94,1.21333 1.42,3.1 1.44,5.66v0v1.74h-9.06v0.37c0,1.74 0.32667,3.00667 0.98,3.8c0.65333,0.78667 1.59667,1.18 2.83,1.18v0c0.78,0 1.46667,-0.14667 2.06,-0.44c0.6,-0.29333 1.16,-0.76 1.68,-1.4v0l1.37,1.68c-1.14667,1.62 -2.9,2.43 -5.26,2.43zM36.788,29.8v0c-1.1,0 -1.91667,0.37667 -2.45,1.13c-0.52667,0.75333 -0.82333,1.92667 -0.89,3.52v0h6.39v-0.36c-0.07333,-1.54 -0.35333,-2.64 -0.84,-3.3c-0.48667,-0.66 -1.22333,-0.99 -2.21,-0.99zM46.508,23.89h2.64v3.93h2.44v2.14h-2.44v10.07c0,0.64 0.10333,1.12333 0.31,1.45c0.21333,0.33333 0.57333,0.5 1.08,0.5v0c0.35333,0 0.71,-0.06 1.07,-0.18v0l-0.03,2.25c-0.6,0.2 -1.21667,0.3 -1.85,0.3v0c-1.04667,0 -1.84333,-0.37667 -2.39,-1.13c-0.55333,-0.74667 -0.83,-1.80667 -0.83,-3.18v0v-10.08h-2.48v-2.14h2.48zM61.438,27.73l0.01,2.58c-0.37333,-0.06667 -0.77333,-0.1 -1.2,-0.1v0c-1.36,0 -2.31,0.74333 -2.85,2.23v0v11.61h-2.66v-16.23h2.59l0.04,1.65c0.71333,-1.3 1.71667,-1.95 3.01,-1.95v0c0.42667,0 0.78,0.07 1.06,0.21zM63.228,36.96v-1.78c0,-2.36 0.57333,-4.22667 1.72,-5.6c1.14667,-1.37333 2.66,-2.06 4.54,-2.06c1.88,0 3.39333,0.67 4.54,2.01c1.14667,1.34 1.73333,3.16333 1.76,5.47v0v1.71c0,2.35333 -0.57,4.21333 -1.71,5.58c-1.14,1.37333 -2.66,2.06 -4.56,2.06v0c-1.88,0 -3.38667,-0.66667 -4.52,-2c-1.13333,-1.32667 -1.72333,-3.12333 -1.77,-5.39zM65.888,35.17v1.54c0,1.67333 0.32667,2.98667 0.98,3.94c0.66,0.95333 1.54333,1.43 2.65,1.43v0c2.34,0 3.54667,-1.69 3.62,-5.07v0v-1.83c0,-1.66 -0.33,-2.97 -0.99,-3.93c-0.66,-0.96667 -1.54667,-1.45 -2.66,-1.45v0c-1.08667,0 -1.96,0.48333 -2.62,1.45c-0.65333,0.96 -0.98,2.26667 -0.98,3.92z"></path></g></g></svg>